# xmcd CD database file
#
# Track frame offsets:
#	150
#	25212
#	49572
#	67847
#	96950
#	127797
#	144547
#	186592
#	205535
#	236255
#	261482
#
# Disc length: 3770 seconds
#
# Revision: 0
# Processed by: cddbd v1.5.2PL0 Copyright (c) Steve Scherf et al.
# Submitted via: CDex 1.50
#
DISCID=930eb80b
DTITLE=E.S.T. - Somewhere Else Before
DYEAR=2000
DGENRE=Jazz
TTITLE0=Somewhere Else Before
TTITLE1=Dodge The Dodo
TTITLE2=From Gagarin's Point Of View
TTITLE3=The Return Of Mohammed
TTITLE4=The Face Of Love
TTITLE5=Pavanne>Thoughts Of A Septuagenarian<
TTITLE6=The Wraith
TTITLE7=The Chapel
TTITLE8=In The Face Of Day
TTITLE9=Spam-Boo-Limbo
TTITLE10=Bonus Track
EXTD=YEAR: 2000
EXTT0=
EXTT1=
EXTT2=
EXTT3=
EXTT4=
EXTT5=
EXTT6=
EXTT7=
EXTT8=
EXTT9=
EXTT10=
PLAYORDER=
